<svg xmlns="http://www.w3.org/2000/svg" width="25.5" height="25.5" viewBox="0 0 25.5 25.5"><path d="M12,15a.75.75,0,0,1-.75-.75V13.244a2.253,2.253,0,0,1,1.5-2.122A2.25,2.25,0,1,0,9.75,9a.75.75,0,0,1-1.5,0,3.75,3.75,0,1,1,5,3.536.751.751,0,0,0-.5.708V14.25A.75.75,0,0,1,12,15Z" transform="translate(0.75 0.553)" fill="#1d2141"/><path d="M12,18.75a1.125,1.125,0,1,1,1.125-1.125A1.126,1.126,0,0,1,12,18.75Z" transform="translate(0.75 1.138)" fill="#1d2141"/><path d="M12-.75a12.75,12.75,0,0,1,9.016,21.766A12.75,12.75,0,1,1,2.984,2.984,12.667,12.667,0,0,1,12-.75Zm0,24a11.25,11.25,0,0,0,7.955-19.2,11.25,11.25,0,1,0-15.91,15.91A11.176,11.176,0,0,0,12,23.25Z" transform="translate(0.75 0.75)" fill="#1d2141"/></svg>