<svg id="streamline-icon-headphones-customer-support_24x24" data-name="streamline-icon-headphones-customer-support@24x24" xmlns="http://www.w3.org/2000/svg" width="25.5" height="25.5" viewBox="0 0 25.5 25.5">
  <path id="Path_871" data-name="Path 871" d="M4.5,18H3.75a3,3,0,0,1-3-3V12a3,3,0,0,1,3-3H4.5a.75.75,0,0,1,.75.75v7.5A.75.75,0,0,1,4.5,18Z" transform="translate(0 0.917)" fill="none" stroke="#1d2141" stroke-linecap="round" stroke-linejoin="round" stroke-width="1.5"/>
  <path id="Path_872" data-name="Path 872" d="M20.25,18H19.5a.75.75,0,0,1-.75-.75V9.75A.75.75,0,0,1,19.5,9h.75a3,3,0,0,1,3,3v3A3,3,0,0,1,20.25,18Z" transform="translate(1.5 0.917)" fill="none" stroke="#1d2141" stroke-linecap="round" stroke-linejoin="round" stroke-width="1.5"/>
  <path id="Path_873" data-name="Path 873" d="M3.75,9c0-4.556,4.029-8.25,9-8.25h0c4.971,0,9,3.694,9,8.25" fill="none" stroke="#1d2141" stroke-linecap="round" stroke-linejoin="round" stroke-width="1.5"/>
  <path id="Path_874" data-name="Path 874" d="M15,21.75h2.25a3,3,0,0,0,3-3h0V18" transform="translate(1.5 1.5)" fill="none" stroke="#1d2141" stroke-linecap="round" stroke-linejoin="round" stroke-width="1.5"/>
  <path id="Path_875" data-name="Path 875" d="M13.5,23.25H12a1.5,1.5,0,0,1-1.5-1.5h0a1.5,1.5,0,0,1,1.5-1.5h1.5a1.5,1.5,0,0,1,1.5,1.5h0A1.5,1.5,0,0,1,13.5,23.25Z" transform="translate(0.813 1.5)" fill="none" stroke="#1d2141" stroke-linecap="round" stroke-linejoin="round" stroke-width="1.5"/>
</svg>
