<svg xmlns="http://www.w3.org/2000/svg" xmlns:xlink="http://www.w3.org/1999/xlink" width="96" height="96.004" viewBox="0 0 96 96.004">
  <defs>
    <clipPath id="clip-path">
      <rect id="Rectangle_1624" data-name="Rectangle 1624" width="96" height="96.004" fill="none"/>
    </clipPath>
  </defs>
  <g id="white-cog-icon-with-exclamation-mark" transform="translate(0 0)">
    <g id="Group_1570" data-name="Group 1570" transform="translate(0 0)" clip-path="url(#clip-path)">
      <path id="Path_936" data-name="Path 936" d="M58.916,46.159l-3.958.21a4.248,4.248,0,0,1-4.477-3.987,5.135,5.135,0,0,1,0-.547l0-3.825a6.687,6.687,0,0,0-11.671-4.884l-2.646,2.934A4.294,4.294,0,0,1,31.247,37.1h0a4.245,4.245,0,0,1-1.438-1.033l-2.642-2.93a6.683,6.683,0,0,0-11.681,4.8l0,3.97a4.254,4.254,0,0,1-4.015,4.47,4.39,4.39,0,0,1-.467,0l-3.959-.211a6.716,6.716,0,0,0-4.82,11.7L5.16,60.45a4.394,4.394,0,0,1,1.414,3.326,4.271,4.271,0,0,1-1.405,3.266L2.224,69.688a6.7,6.7,0,0,0-.5,9.447,6.614,6.614,0,0,0,5.267,2.208l4.023,0a4.24,4.24,0,0,1,4.476,3.987,5.1,5.1,0,0,1,0,.547V89.71a6.7,6.7,0,0,0,6.3,7.06,6.621,6.621,0,0,0,5.372-2.223l2.645-2.9a4.3,4.3,0,0,1,6.068-.288c.1.092.2.188.291.292l2.644,2.886a6.684,6.684,0,0,0,11.681-4.754l0-3.975A4.252,4.252,0,0,1,54.5,81.342a5.07,5.07,0,0,1,.529,0l3.89,0a6.694,6.694,0,0,0,4.831-11.654l-2.947-2.644A4.3,4.3,0,0,1,59.4,63.731a4.353,4.353,0,0,1,1.4-3.267l2.954-2.614a6.718,6.718,0,0,0-4.836-11.692m3.211,9.876-2.959,2.619a6.992,6.992,0,0,0,.009,10.2L62.124,71.5a4.256,4.256,0,0,1,0,6.32,4.3,4.3,0,0,1-3.134,1.088l-3.884,0a6.681,6.681,0,0,0-7.05,6.967l0,3.98a4.249,4.249,0,0,1-7.437,3.052l-2.655-2.9c-.142-.156-.291-.3-.448-.449a6.688,6.688,0,0,0-4.525-1.752c-.108,0-.216,0-.325.007A6.692,6.692,0,0,0,28,90.008l-2.654,2.908a4.22,4.22,0,0,1-3.422,1.421,4.275,4.275,0,0,1-4-4.558l0-3.836a6.94,6.94,0,0,0,0-.753,6.659,6.659,0,0,0-6.979-6.283l-4.019,0A4.254,4.254,0,0,1,3.853,71.5L6.8,68.852a6.681,6.681,0,0,0,2.21-5.084,6.814,6.814,0,0,0-2.221-5.13l-2.941-2.6a4.28,4.28,0,0,1,3.073-7.452l3.952.21a6.478,6.478,0,0,0,.728,0,6.677,6.677,0,0,0,6.32-6.968l0-3.986a4.274,4.274,0,0,1,1.425-3.468,4.248,4.248,0,0,1,6.005.377L28,37.7a6.741,6.741,0,0,0,9.968,0l2.657-2.946a4.236,4.236,0,0,1,3.462-1.423,4.279,4.279,0,0,1,3.96,4.6l0,3.837a6.92,6.92,0,0,0,0,.752A6.685,6.685,0,0,0,55.092,48.8l3.947-.21a4.282,4.282,0,0,1,3.088,7.443" transform="translate(0 -0.784)" fill="#fff"/>
      <path id="Path_937" data-name="Path 937" d="M97.24,24.787a5.33,5.33,0,0,0-2.39-3.346l-4-2.509a1.893,1.893,0,0,1-.667-2.487l2.217-4.16A5.38,5.38,0,0,0,85.136,5l-4.15,2.207a1.888,1.888,0,0,1-2.476-.671l-2.5-4A5.361,5.361,0,0,0,66.1,5.185L65.933,9.9a1.876,1.876,0,0,1-1.8,1.8l-4.708.161A5.376,5.376,0,0,0,56.776,21.8l4,2.494a1.893,1.893,0,0,1,.665,2.489l-2.2,4.163A5.379,5.379,0,0,0,66.5,38.228l4.157-2.208a1.886,1.886,0,0,1,2.472.669l2.5,4.008a5.354,5.354,0,0,0,4.383,2.536l.176,0a5.368,5.368,0,0,0,5.356-5.189l.149-4.7A1.879,1.879,0,0,1,87.5,31.534l4.705-.161a5.375,5.375,0,0,0,5.037-6.586M94.5,27.555a2.935,2.935,0,0,1-2.383,1.382l-4.7.161a4.322,4.322,0,0,0-4.155,4.168l-.149,4.7a2.93,2.93,0,0,1-2.923,2.83l-.1,0A2.924,2.924,0,0,1,77.7,39.41L75.2,35.4a4.326,4.326,0,0,0-3.674-2.031,4.279,4.279,0,0,0-2.008.5l-4.157,2.208a2.943,2.943,0,0,1-3.973-3.987l2.2-4.162a4.336,4.336,0,0,0-1.527-5.7l-4-2.494A2.939,2.939,0,0,1,59.509,14.3l4.706-.162a4.321,4.321,0,0,0,4.153-4.155l.163-4.715v0a2.925,2.925,0,0,1,5.413-1.441l2.5,4a4.328,4.328,0,0,0,5.686,1.534l4.149-2.207a2.943,2.943,0,0,1,3.975,3.984L88.035,15.3A4.335,4.335,0,0,0,89.561,21l4,2.51a2.937,2.937,0,0,1,.939,4.049" transform="translate(-1.381 0)" fill="#fff"/>
      <path id="Path_938" data-name="Path 938" d="M34.22,68.315a1.462,1.462,0,0,0,1.462-1.462V53.208a1.462,1.462,0,1,0-2.924,0V66.853a1.462,1.462,0,0,0,1.462,1.462" transform="translate(-0.834 -1.314)" fill="#fff"/>
      <path id="Path_939" data-name="Path 939" d="M76.207,20.246A1.949,1.949,0,1,0,78.156,22.2a1.949,1.949,0,0,0-1.949-1.949" transform="translate(-1.891 -0.514)" fill="#fff"/>
      <path id="Path_940" data-name="Path 940" d="M34.207,73.246A1.949,1.949,0,1,0,36.156,75.2a1.949,1.949,0,0,0-1.949-1.949" transform="translate(-0.821 -1.859)" fill="#fff"/>
    </g>
  </g>
</svg>
