<svg xmlns="http://www.w3.org/2000/svg" width="67" height="67" viewBox="0 0 67 67">
  <g id="icone_cellulaire-non-disponible" transform="translate(-679 -236)">
    <path id="Path_21" data-name="Path 21" d="M2,34A32,32,0,1,0,34,2,32,32,0,0,0,2,34Z" transform="translate(678.5 235.5)" fill="none" stroke="#1d2141" stroke-width="3"/>
    <g id="streamline-icon-forbidden-phone-off_32x32" data-name="streamline-icon-forbidden-phone-off@32x32" transform="translate(696.5 253.5)">
      <g id="Group_1818" data-name="Group 1818">
        <line id="Line_255" data-name="Line 255" x2="11" transform="translate(13 25)" fill="none" stroke="#000" stroke-linecap="round" stroke-linejoin="round" stroke-width="3"/>
        <path id="Path_860" data-name="Path 860" d="M24,14V27a4,4,0,0,1-4,4H12a4,4,0,0,1-3.013-1.333" fill="none" stroke="#000" stroke-linecap="round" stroke-linejoin="round" stroke-width="3"/>
        <line id="Line_256" data-name="Line 256" x1="30" y2="30" transform="translate(1 1)" fill="none" stroke="#000" stroke-linecap="round" stroke-linejoin="round" stroke-width="3"/>
        <path id="Path_861" data-name="Path 861" d="M24,8V7a4,4,0,0,0-4-4H12A4,4,0,0,0,8,7V24" fill="none" stroke="#000" stroke-linecap="round" stroke-linejoin="round" stroke-width="3"/>
      </g>
    </g>
  </g>
</svg>
