<svg id="alert-circle-outline" xmlns="http://www.w3.org/2000/svg" width="96" height="96" viewBox="0 0 96 96">
  <path id="Path_574" data-name="Path 574" d="M258.261,411.76a3.953,3.953,0,1,1,3.95-3.953A3.957,3.957,0,0,1,258.261,411.76Z" transform="translate(-210.261 -340.062)" fill="#9e2b2f"/>
  <path id="Path_575" data-name="Path 575" d="M257.532,420.081a2.823,2.823,0,0,1-2.824-2.823V392.411a2.824,2.824,0,0,1,5.647,0v24.847A2.825,2.825,0,0,1,257.532,420.081Z" transform="translate(-209.532 -366.078)" fill="#9e2b2f"/>
  <path id="Path_576" data-name="Path 576" d="M286.708,477.261a48,48,0,1,1,48-48A48.052,48.052,0,0,1,286.708,477.261Zm0-90.353a42.353,42.353,0,1,0,42.353,42.353A42.4,42.4,0,0,0,286.708,386.908Z" transform="translate(-238.708 -381.261)" fill="#9e2b2f"/>
</svg>
