<svg xmlns="http://www.w3.org/2000/svg" width="17.5" height="17.5" viewBox="0 0 17.5 17.5">
  <g id="icone-copier" transform="translate(-2.25 -2.25)">
    <path id="Path_1392" data-name="Path 1392" d="M15.1,13.5h7.2a1.6,1.6,0,0,1,1.6,1.6v7.2a1.6,1.6,0,0,1-1.6,1.6H15.1a1.6,1.6,0,0,1-1.6-1.6V15.1A1.6,1.6,0,0,1,15.1,13.5Z" transform="translate(-4.9 -4.9)" fill="none" stroke="#9E2B2F" stroke-linecap="round" stroke-linejoin="round" stroke-width="1.5"/>
    <path id="Path_1393" data-name="Path 1393" d="M5.4,13.4H4.6A1.6,1.6,0,0,1,3,11.8V4.6A1.6,1.6,0,0,1,4.6,3h7.2a1.6,1.6,0,0,1,1.6,1.6v.8" fill="none" stroke="#9E2B2F" stroke-linecap="round" stroke-linejoin="round" stroke-width="1.5"/>
  </g>
</svg>
