<svg xmlns="http://www.w3.org/2000/svg" width="64" height="63.939"><defs><style>.a{fill:#1d2141}</style></defs><path class="a" d="M17.061 63.939a2 2 0 010-4h4.785l1.436-7.992H9.99A10 10 0 010 41.96V9.99A10 10 0 019.99 0h39.962a10.044 10.044 0 014.47 1.052 2 2 0 01-1.788 3.575A6.007 6.007 0 0049.963 4H9.99A6 6 0 004 9.99v25.975h53.944a2 2 0 012 2v4a10 10 0 01-9.99 9.99H36.666l1.434 7.987h4.785a2 2 0 110 4zm16.978-4l-1.433-7.989h-5.264l-1.436 7.992zM4 41.96a6 6 0 005.99 5.994h39.962a6 6 0 005.994-5.994v-2H4z"/><path class="a" d="M34.213 31.974a4.825 4.825 0 01-4.769-4.542 4.876 4.876 0 01.37-2.158l3.746-11.887A7.737 7.737 0 0140.26 8c.059-.008.118-.008.176-.008h18.551a5.028 5.028 0 014.785 6.511l-2.556 11.889a7.275 7.275 0 01-6.729 5.574H34.418a1.545 1.545 0 01-.205.008zm-.621-5.4a1.7 1.7 0 01-.088.229.83.83 0 00-.075.392.814.814 0 00.277.573.8.8 0 00.538.21H54.4a3.209 3.209 0 002.912-2.459l2.249-10.441-11.993 8.528a1.971 1.971 0 01-1.154.37 2 2 0 01-1.519-.7l-7.508-8.749c0 .021-3.795 12.047-3.795 12.047zm13.15-7.282l10.268-7.3H40.537a.361.361 0 01-.05 0zM13.988 31.973a2 2 0 110-4h4a2 2 0 110 4zM13.988 23.981a2 2 0 010-4h7.99a2 2 0 010 4zM13.988 15.988a2 2 0 010-4h13.985a2 2 0 010 4z"/></svg>