<svg xmlns="http://www.w3.org/2000/svg" width="27.359" height="26.773" viewBox="0 0 27.359 26.773">
    <defs>
        <style>
            .a{fill:none;stroke:#1d2141;stroke-linecap:round;stroke-linejoin:round;stroke-width:2px;}
        </style>
    </defs>
    <g transform="translate(1 1.414)">
        <g transform="translate(6 5.649)">
            <path class="a"
                  d="M19.938,21.172a10.961,10.961,0,0,1-6.465,2.242C5.854,23.414,1.5,14.707,1.5,14.707A20.081,20.081,0,0,1,7.007,8.242m4.18-1.981A9.927,9.927,0,0,1,13.473,6c7.619,0,11.973,8.707,11.973,8.707a20.134,20.134,0,0,1-2.351,3.472M15.78,17.014A3.265,3.265,0,1,1,11.165,12.4"
                  transform="translate(-7.5 -8.649)"/>
            <path class="a" d="M1.5,1.5,25.445,25.444" transform="translate(-6.5 -7.149)"/>
        </g>
    </g>
</svg>
