<svg xmlns="http://www.w3.org/2000/svg" width="652.087" height="564.715" viewBox="0 0 652.087 564.715"><g transform="translate(1.043 0.755)"><path d="M400.945,278.015" transform="translate(140.721 97.263)" fill="none" stroke="#df6209" stroke-linecap="round" stroke-linejoin="round" stroke-width="1.51"/><path d="M80.793,278.015" transform="translate(27.54 97.263)" fill="none" stroke="#df6209" stroke-linecap="round" stroke-linejoin="round" stroke-width="1.51"/><path d="M160.831,416.645" transform="translate(55.836 146.272)" fill="none" stroke="#df6209" stroke-linecap="round" stroke-linejoin="round" stroke-width="1.51"/><g transform="translate(108.333 187.639)"><line x1="108.333" y2="187.639" fill="none" stroke="#df6209" stroke-linecap="round" stroke-linejoin="round" stroke-width="1.51"/><path d="M240.869,278.015" transform="translate(-24.202 -90.376)" fill="none" stroke="#df6209" stroke-linecap="round" stroke-linejoin="round" stroke-width="1.51"/><path d="M297.46,296.162,189.126,226.682,80.793,296.162" transform="translate(-80.793 -108.524)" fill="none" stroke="#df6209" stroke-linecap="round" stroke-linejoin="round" stroke-width="1.51"/><line y2="375.278" transform="translate(108.333)" stroke-width="1.51" stroke="#df6209" stroke-linecap="round" stroke-linejoin="round" fill="none"/></g><g transform="translate(216.667 375.278)"><line x2="216.667" transform="translate(0 187.639)" stroke-width="1.51" stroke="#df6209" stroke-linecap="round" stroke-linejoin="round" fill="none"/><path d="M240.869,278.015" transform="translate(-132.536 -278.015)" fill="none" stroke="#df6209" stroke-linecap="round" stroke-linejoin="round" stroke-width="1.51"/><path d="M377.5,434.792,269.164,365.311,160.831,434.792" transform="translate(-160.831 -247.154)" fill="none" stroke="#df6209" stroke-linecap="round" stroke-linejoin="round" stroke-width="1.51"/><line y2="118.158" transform="translate(108.333)" stroke-width="1.51" stroke="#df6209" stroke-linecap="round" stroke-linejoin="round" fill="none"/></g><g transform="translate(0 375.278)"><path d="M109.088,278.015.755,465.654H217.422" transform="translate(-0.755 -278.015)" fill="none" stroke="#df6209" stroke-linecap="round" stroke-linejoin="round" stroke-width="1.51"/><path d="M217.422,434.792,109.088,365.311.755,434.792" transform="translate(-0.755 -247.154)" fill="none" stroke="#df6209" stroke-linecap="round" stroke-linejoin="round" stroke-width="1.51"/><line y2="187.639" transform="translate(108.333)" stroke-width="1.51" stroke="#df6209" stroke-linecap="round" stroke-linejoin="round" fill="none"/></g><g transform="translate(108.333 375.278)"><path d="M240.869,278.015" transform="translate(-24.202 -278.015)" fill="none" stroke="#df6209" stroke-linecap="round" stroke-linejoin="round" stroke-width="1.51"/><path d="M160.831,416.645" transform="translate(-52.498 -229.006)" fill="none" stroke="#df6209" stroke-linecap="round" stroke-linejoin="round" stroke-width="1.51"/><path d="M80.793,278.015" transform="translate(-80.793 -278.015)" fill="none" stroke="#df6209" stroke-linecap="round" stroke-linejoin="round" stroke-width="1.51"/><path d="M160.831,416.645" transform="translate(-52.498 -229.006)" fill="none" stroke="#df6209" stroke-linecap="round" stroke-linejoin="round" stroke-width="1.51"/><path d="M297.46,278.015,189.126,347.5,80.793,278.015" transform="translate(-80.793 -278.015)" fill="none" stroke="#df6209" stroke-linecap="round" stroke-linejoin="round" stroke-width="1.51"/><path d="M240.869,278.015" transform="translate(-24.202 -278.015)" fill="none" stroke="#df6209" stroke-linecap="round" stroke-linejoin="round" stroke-width="1.51"/></g><g transform="translate(216.667)"><path d="M377.5,188.394,269.164.755,160.831,188.394" transform="translate(-160.831 -0.755)" fill="none" stroke="#df6209" stroke-linecap="round" stroke-linejoin="round" stroke-width="1.51"/><path d="M377.5,157.533,269.164,88.052,160.831,157.533" transform="translate(-160.831 30.106)" fill="none" stroke="#df6209" stroke-linecap="round" stroke-linejoin="round" stroke-width="1.51"/><line y2="562.917" transform="translate(108.333)" stroke-width="1.51" stroke="#df6209" stroke-linecap="round" stroke-linejoin="round" fill="none"/></g><g transform="translate(216.667 187.639)"><path d="M320.907,139.385" transform="translate(-104.24 -139.385)" fill="none" stroke="#df6209" stroke-linecap="round" stroke-linejoin="round" stroke-width="1.51"/><path d="M240.869,278.015" transform="translate(-132.536 -90.376)" fill="none" stroke="#df6209" stroke-linecap="round" stroke-linejoin="round" stroke-width="1.51"/><path d="M160.831,139.385" transform="translate(-160.831 -139.385)" fill="none" stroke="#df6209" stroke-linecap="round" stroke-linejoin="round" stroke-width="1.51"/><path d="M160.831,139.385l108.333,69.481L377.5,139.385" transform="translate(-160.831 -139.385)" fill="none" stroke="#df6209" stroke-linecap="round" stroke-linejoin="round" stroke-width="1.51"/><path d="M240.869,278.015" transform="translate(-132.536 -90.376)" fill="none" stroke="#df6209" stroke-linecap="round" stroke-linejoin="round" stroke-width="1.51"/><line y1="118.158" transform="translate(108.333 69.481)" stroke-width="1.51" stroke="#df6209" stroke-linecap="round" stroke-linejoin="round" fill="none"/></g><g transform="translate(325 187.639)"><path d="M240.869,278.015" transform="translate(-240.869 -90.376)" fill="none" stroke="#df6209" stroke-linecap="round" stroke-linejoin="round" stroke-width="1.51"/><line x1="108.333" y1="187.639" transform="translate(108.334)" stroke-width="1.51" stroke="#df6209" stroke-linecap="round" stroke-linejoin="round" fill="none"/><path d="M457.536,296.162,349.2,226.682,240.869,296.162" transform="translate(-240.869 -108.524)" fill="none" stroke="#df6209" stroke-linecap="round" stroke-linejoin="round" stroke-width="1.51"/><line y2="375.278" transform="translate(108.334)" stroke-width="1.51" stroke="#df6209" stroke-linecap="round" stroke-linejoin="round" fill="none"/><path d="M240.869,278.015" transform="translate(-240.869 -90.376)" fill="none" stroke="#df6209" stroke-linecap="round" stroke-linejoin="round" stroke-width="1.51"/></g><g transform="translate(433.333 375.278)"><path d="M320.907,465.654H537.574L429.241,278.015" transform="translate(-320.907 -278.015)" fill="none" stroke="#df6209" stroke-linecap="round" stroke-linejoin="round" stroke-width="1.51"/><path d="M537.574,434.792,429.241,365.311,320.907,434.792" transform="translate(-320.907 -247.154)" fill="none" stroke="#df6209" stroke-linecap="round" stroke-linejoin="round" stroke-width="1.51"/><line y2="187.639" transform="translate(108.333)" stroke-width="1.51" stroke="#df6209" stroke-linecap="round" stroke-linejoin="round" fill="none"/></g><g transform="translate(325 375.278)"><path d="M400.945,278.015" transform="translate(-184.278 -278.015)" fill="none" stroke="#df6209" stroke-linecap="round" stroke-linejoin="round" stroke-width="1.51"/><path d="M320.907,416.645" transform="translate(-212.574 -229.006)" fill="none" stroke="#df6209" stroke-linecap="round" stroke-linejoin="round" stroke-width="1.51"/><path d="M240.869,278.015" transform="translate(-240.869 -278.015)" fill="none" stroke="#df6209" stroke-linecap="round" stroke-linejoin="round" stroke-width="1.51"/><path d="M320.907,416.645" transform="translate(-212.574 -229.006)" fill="none" stroke="#df6209" stroke-linecap="round" stroke-linejoin="round" stroke-width="1.51"/><path d="M240.869,278.015,349.2,347.5l108.333-69.481" transform="translate(-240.869 -278.015)" fill="none" stroke="#df6209" stroke-linecap="round" stroke-linejoin="round" stroke-width="1.51"/></g><path d="M240.869,278.015" transform="translate(84.131 97.263)" fill="none" stroke="#df6209" stroke-linecap="round" stroke-linejoin="round" stroke-width="1.51"/><path d="M320.907,139.385" transform="translate(112.426 48.254)" fill="none" stroke="#df6209" stroke-linecap="round" stroke-linejoin="round" stroke-width="1.51"/><path d="M160.831,139.385" transform="translate(55.836 48.254)" fill="none" stroke="#df6209" stroke-linecap="round" stroke-linejoin="round" stroke-width="1.51"/><path d="M160.831,139.385,377.5,514.663,485.831,327.024" transform="translate(55.836 48.254)" fill="none" stroke="#df6209" stroke-linecap="round" stroke-linejoin="round" stroke-width="1.51"/><path d="M405.793,139.385,189.126,514.663,80.793,327.024" transform="translate(27.54 48.254)" fill="none" stroke="#df6209" stroke-linecap="round" stroke-linejoin="round" stroke-width="1.51"/></g></svg>