<svg xmlns="http://www.w3.org/2000/svg" width="34" height="34" viewBox="0 0 34 34"><defs><style>.a{fill:#1d2141;}</style></defs><g transform="translate(-379.007 -381.261)"><path class="a" d="M399.207,403.661h-1.066a1.135,1.135,0,0,1-1.134-1.133V397.2a2.07,2.07,0,0,0-2.067-2.067h-1.066a1,1,0,0,0,0,2l1.133.067v5.334a3.137,3.137,0,0,0,3.134,3.132h1.066a1,1,0,0,0,0-2Z"/><path class="a" d="M395.473,392.86a1.533,1.533,0,1,0-1.534-1.533A1.535,1.535,0,0,0,395.473,392.86Z"/><path class="a" d="M396.007,381.261a17,17,0,1,0,17,17A17.019,17.019,0,0,0,396.007,381.261Zm0,32a15,15,0,1,1,15-15A15.016,15.016,0,0,1,396.007,413.261Z"/></g></svg>