<svg xmlns="http://www.w3.org/2000/svg" width="32" height="26.667" viewBox="0 0 32 26.667"><defs><style>.a{fill:#000000;}</style></defs><path class="a" d="M28.711,54.728c.02.292.02.583.02.875,0,8.9-6.6,19.146-18.66,19.146A18.193,18.193,0,0,1,0,71.728a13.225,13.225,0,0,0,1.584.083,12.924,12.924,0,0,0,8.142-2.875A6.593,6.593,0,0,1,3.594,64.27a8.066,8.066,0,0,0,1.239.1,6.771,6.771,0,0,0,1.726-.229A6.689,6.689,0,0,1,1.3,57.54v-.083a6.479,6.479,0,0,0,2.964.854,6.856,6.856,0,0,1-2.03-9,18.49,18.49,0,0,0,13.523,7.042,7.786,7.786,0,0,1-.162-1.542,6.643,6.643,0,0,1,6.558-6.729,6.466,6.466,0,0,1,4.792,2.125,12.715,12.715,0,0,0,4.162-1.625,6.683,6.683,0,0,1-2.883,3.708A12.886,12.886,0,0,0,32,51.249,14.3,14.3,0,0,1,28.711,54.728Z" transform="translate(0 -48.082)"/></svg>